<!-- Created with Inkscape (http://www.inkscape.org/) -->
<svg xmlns:inkscape="http://www.inkscape.org/namespaces/inkscape" xmlns:sodipodi="http://sodipodi.sourceforge.net/DTD/sodipodi-0.dtd" xmlns="http://www.w3.org/2000/svg" xmlns:svg="http://www.w3.org/2000/svg" width="100%" height="100%" viewBox="51.0 122.0 73.0 60.0" version="1.1" id="svg1" inkscape:version="1.4.4 (dcaf3e7, 2026-05-05)" sodipodi:docname="logo.svg">
  <sodipodi:namedview id="namedview1" pagecolor="#ffffff" bordercolor="#000000" borderopacity="0.25" inkscape:showpageshadow="2" inkscape:pageopacity="0.0" inkscape:pagecheckerboard="0" inkscape:deskcolor="#d1d1d1" inkscape:document-units="mm" showgrid="false" showguides="true" inkscape:zoom="2.0334082" inkscape:cx="188.10783" inkscape:cy="104.01256" inkscape:window-width="1680" inkscape:window-height="1027" inkscape:window-x="-8" inkscape:window-y="-8" inkscape:window-maximized="1" inkscape:current-layer="layer1">
    <inkscape:grid id="grid5" units="mm" originx="0" originy="0" spacingx="0.99999998" spacingy="1" empcolor="#0099e5" empopacity="0.30196078" color="#0099e5" opacity="0.14901961" empspacing="5" enabled="true" visible="false"/>
  </sodipodi:namedview>
  <defs id="defs1"/>
  <g inkscape:label="Layer 1" inkscape:groupmode="layer" id="layer1">
    <rect style="fill:#008080;stroke-width:0.102889" id="rect1-8-1-23-3-7" width="35.8829" height="30.067057" x="53.447144" y="147.48442" rx="3.4962819" ry="4.8207045"/>
    <rect style="fill:#008080;stroke-width:0.102889" id="rect1-8-1-23-3-7-4" width="35.8829" height="30.067057" x="85.757217" y="147.59798" rx="3.4962819" ry="4.8207045"/>
    <rect style="fill:#2ca089;stroke-width:0.210148" id="rect1" width="54.444489" height="48.273724" x="60.356876" y="131.69283" ry="3.4312205"/>
    <rect style="fill:#008066;stroke-width:0.0365391" id="rect1-8-1-2-0" width="17.407024" height="5.3914585" x="127.33665" y="-76.011154" rx="0" ry="0.84269881" transform="matrix(-0.00787012,0.99996903,-0.99999376,-0.00353195,0,0)"/>
    <rect style="fill:#008066;stroke-width:0.101501" id="rect1-8-1-2" width="59.077999" height="12.258275" x="57.883823" y="124.50406" rx="0" ry="1.916"/>
    <rect style="fill:#d4aa00;stroke-width:0.264999" id="rect7" width="8.7179174" height="8.8480349" x="67.856621" y="132.13501" ry="1.916"/>
    <rect style="fill:#008066;stroke-width:0.020801" id="rect1-8-1-2-0-1" width="5.6413112" height="5.3914285" x="133.53435" y="-78.313828" rx="0" ry="0.8426941" transform="matrix(-0.02428431,0.99970509,-0.99999935,-0.00114435,0,0)"/>
    <rect style="fill:#d4aa00;stroke-width:0.10933" id="rect8-2" width="1.5614181" height="4.4240174" x="71.596443" y="132.6035" ry="1.3860426"/>
    <rect style="fill:#008066;stroke-width:0.0365391" id="rect1-8-1-2-0-4" width="17.407024" height="5.3914585" x="127.58925" y="-106.64604" rx="0" ry="0.84269881" transform="matrix(-0.00787012,0.99996903,-0.99999376,-0.00353195,0,0)"/>
    <rect style="fill:#d4aa00;stroke-width:0.264999" id="rect7-0" width="8.7179174" height="8.8480349" x="98.489319" y="132.4958" ry="1.916"/>
    <rect style="fill:#008066;stroke-width:0.020801" id="rect1-8-1-2-0-1-6" width="5.6413112" height="5.3914285" x="133.86017" y="-108.95447" rx="0" ry="0.8426941" transform="matrix(-0.02428431,0.99970509,-0.99999935,-0.00114435,0,0)"/>
    <rect style="fill:#d4aa00;stroke-width:0.10933" id="rect8-2-1" width="1.5614181" height="4.4240174" x="102.22914" y="132.96429" ry="1.3860426"/>
    <rect style="fill:#d45500;stroke-width:0.141496" id="rect1-7" width="44.23774" height="26.934347" x="65.654091" y="148.99792" ry="1.914451"/>
    </g>
</svg>
